<?xml version="1.0" encoding="UTF-8"?>
<svg id="Layer_1" data-name="Layer 1" xmlns="http://www.w3.org/2000/svg" viewBox="0 0 1920 1080">
  <defs>
    <style>
      .cls-1 {
        fill: #9bad95;
      }

      .cls-1, .cls-2, .cls-3, .cls-4, .cls-5, .cls-6, .cls-7, .cls-8 {
        stroke-width: 0px;
      }

      .cls-2 {
        fill: #fff;
      }

      .cls-3 {
        fill: #1e2b30;
      }

      .cls-4 {
        fill: #e9e8e7;
      }

      .cls-5 {
        fill: #586569;
      }

      .cls-6, .cls-9 {
        fill: #b3daa9;
      }

      .cls-7, .cls-10 {
        fill: #48af86;
      }

      .cls-8 {
        fill: #94b0a4;
      }

      .cls-9 {
        font-family: Poppins-Regular, Poppins;
        font-size: 89.44px;
        letter-spacing: 0em;
      }

      .cls-10 {
        font-family: Poppins-SemiBold, Poppins;
        font-size: 188.96px;
        font-weight: 600;
      }
    </style>
  </defs>
  <g>
    <path class="cls-3" d="m670.43,379.89h32.4v106.47h-32.4c-2.22,0-4.03-1.8-4.03-4.03v-98.41c0-2.22,1.8-4.03,4.03-4.03Z"/>
    <g>
      <circle class="cls-3" cx="791.13" cy="527.41" r="60.33" transform="translate(-141.22 713.89) rotate(-45)"/>
      <path class="cls-5" d="m824.43,527.41c0,18.39-14.91,33.3-33.3,33.3s-33.3-14.91-33.3-33.3,14.91-33.3,33.3-33.3,33.3,14.91,33.3,33.3Z"/>
    </g>
    <path class="cls-2" d="m1182.53,386.45v139.75h-487.79v-139.75c0-63.42,51.41-114.82,114.82-114.82h258.2c63.42,0,114.77,51.41,114.77,114.82Z"/>
    <rect class="cls-1" x="685.14" y="518.13" width="565.74" height="18.57"/>
    <path class="cls-6" d="m1182.53,386.45v12.44h-487.79v-12.44c0-2.19.05-4.38.21-6.57.32-6.25,1.17-12.38,2.56-18.36.43-2.24,1.01-4.48,1.71-6.73,1.76-6.35,4.11-12.44,6.94-18.31,1.07-2.3,2.3-4.54,3.58-6.73,3.68-6.51,8.01-12.65,12.92-18.31,1.98-2.35,4.11-4.59,6.3-6.73,7.26-7.21,15.43-13.4,24.4-18.36,4.48-2.56,9.13-4.8,13.99-6.67,13.08-5.23,27.33-8.06,42.22-8.06h258.2c14.89,0,29.15,2.83,42.22,8.06,4.86,1.87,9.5,4.11,13.99,6.67,8.97,5.02,17.19,11.21,24.4,18.36,2.19,2.19,4.32,4.43,6.25,6.73,4.96,5.66,9.29,11.8,12.97,18.31,1.28,2.19,2.46,4.43,3.52,6.73,2.88,5.87,5.23,11.96,6.94,18.31.69,2.24,1.28,4.48,1.71,6.73,1.39,5.98,2.24,12.12,2.56,18.36.16,2.19.21,4.38.21,6.57Z"/>
    <rect class="cls-7" x="689.31" y="398.89" width="497.46" height="18.39"/>
    <g>
      <path class="cls-7" d="m1182.53,386.45v.11h-487.79v-.11c0-2.19.05-4.38.21-6.57h487.37c.16,2.19.21,4.38.21,6.57Z"/>
      <path class="cls-7" d="m1179.75,361.52h-482.24c.43-2.24,1.01-4.48,1.71-6.73h478.83c.69,2.24,1.28,4.48,1.71,6.73Z"/>
      <path class="cls-7" d="m1171.11,336.49h-464.95c1.07-2.3,2.3-4.54,3.58-6.73h457.85c1.28,2.19,2.46,4.43,3.52,6.73Z"/>
      <path class="cls-7" d="m1154.61,311.45h-431.96c1.98-2.35,4.11-4.59,6.3-6.73h419.41c2.19,2.19,4.32,4.43,6.25,6.73Z"/>
      <path class="cls-7" d="m1123.97,286.36h-370.62c4.48-2.56,9.13-4.8,13.99-6.67h342.65c4.86,1.87,9.5,4.11,13.99,6.67Z"/>
    </g>
    <path class="cls-7" d="m996.48,342.22h79.15c4.79,0,8.67,3.89,8.67,8.67v185.81h-96.49v-185.81c0-4.79,3.89-8.67,8.67-8.67Z"/>
    <path class="cls-3" d="m1036.05,347.46h0c-23.87,0-43.21,19.35-43.21,43.21v146.02h86.43v-146.02c0-23.87-19.35-43.21-43.21-43.21Z"/>
    <rect class="cls-3" x="1217.63" y="536.7" width="17.44" height="19.78"/>
    <rect class="cls-2" x="1220.8" y="556.48" width="11.11" height="31.26"/>
    <circle class="cls-8" cx="1036.05" cy="389.4" r="27.87"/>
    <path class="cls-1" d="m818.28,246.63h89.64c1.29,0,2.34,1.05,2.34,2.34v22.66h-94.32v-22.66c0-1.29,1.05-2.34,2.34-2.34Z"/>
    <path class="cls-2" d="m897.76,246.63h-69.32c-6.91,0-12.5,5.6-12.5,12.5h94.32c0-6.91-5.6-12.5-12.5-12.5Z"/>
    <rect class="cls-7" x="961.59" y="526.2" width="148.6" height="10.49"/>
    <rect class="cls-4" x="767.5" y="417.28" width="8" height="100.85"/>
    <rect class="cls-4" x="843.83" y="417.28" width="8" height="100.85"/>
    <rect class="cls-4" x="920.17" y="417.28" width="8" height="100.85"/>
    <rect class="cls-4" x="1123.97" y="417.28" width="8" height="100.85"/>
    <g>
      <rect class="cls-2" x="745.34" y="321.82" width="98.49" height="72.84"/>
      <rect class="cls-1" x="753.8" y="328.99" width="81.57" height="58.51"/>
    </g>
    <g>
      <rect class="cls-2" x="863.1" y="321.82" width="98.49" height="72.84"/>
      <rect class="cls-1" x="871.56" y="328.99" width="81.57" height="58.51"/>
    </g>
    <g>
      <rect class="cls-2" x="1095.47" y="347.46" width="65.01" height="48.08"/>
      <rect class="cls-1" x="1101.05" y="352.19" width="53.84" height="38.62"/>
    </g>
  </g>
  <path class="cls-2" d="m1012.56,421.02c0,3.79-3.07,6.86-6.86,6.86s-6.86-3.07-6.86-6.86,3.07-6.86,6.86-6.86,6.86,3.07,6.86,6.86Z"/>
  <rect class="cls-4" x="857.7" y="442.45" width="54.65" height="25.28"/>
  <rect class="cls-4" x="933.17" y="391.9" width="50.78" height="25.28"/>
  <rect class="cls-4" x="702.83" y="442.45" width="54.99" height="25.28"/>
  <rect class="cls-4" x="702.83" y="408.37" width="54.99" height="25.28"/>
  <text class="cls-10" transform="translate(584.42 732.97)"><tspan x="0" y="0">Sultana</tspan></text>
  <text class="cls-9" transform="translate(771.5 810.69)"><tspan x="0" y="0">Caravan</tspan></text>
</svg>