<?xml version="1.0" encoding="UTF-8"?>
<svg id="Layer_1" data-name="Layer 1" xmlns="http://www.w3.org/2000/svg" viewBox="0 0 4388.52 2638.98">
  <defs>
    <style>
      .cls-1 {
        fill: #e0623a;
      }

      .cls-1, .cls-2, .cls-3, .cls-4, .cls-5, .cls-6, .cls-7 {
        stroke-width: 0px;
      }

      .cls-2 {
        fill: #f3ccbf;
      }

      .cls-3 {
        fill: #f29973;
      }

      .cls-4 {
        fill: #fff;
      }

      .cls-5 {
        fill: #1e2b30;
      }

      .cls-6 {
        fill: #e9e8e7;
      }

      .cls-7 {
        fill: #586569;
      }
    </style>
  </defs>
  <g>
    <path class="cls-5" d="m203.57,1064.93h244.64v726.72h-244.64c-2.22,0-4.03-1.8-4.03-4.03v-718.66c0-2.22,1.8-4.03,4.03-4.03Z"/>
    <g>
      <circle class="cls-5" cx="1050.87" cy="2071.89" r="411.76" transform="translate(-1157.25 1349.92) rotate(-45)"/>
      <path class="cls-7" d="m1278.19,2071.89c0,125.55-101.78,227.33-227.32,227.33s-227.33-101.78-227.33-227.33,101.78-227.33,227.33-227.33,227.32,101.78,227.32,227.33Z"/>
    </g>
    <path class="cls-4" d="m3722.44,1109.75v953.89H392.94v-953.89c0-432.86,350.88-783.73,783.73-783.73h1762.4c432.86,0,783.37,350.88,783.37,783.73Z"/>
    <rect class="cls-3" x="327.45" y="2008.5" width="3861.54" height="126.77"/>
    <path class="cls-3" d="m3722.44,1109.75v84.9H392.94v-84.9c0-14.94.36-29.88,1.46-44.82,2.19-42.63,8.02-84.53,17.49-125.34,2.91-15.3,6.92-30.61,11.66-45.91,12.02-43.36,28.06-84.9,47.37-124.97,7.29-15.67,15.67-30.97,24.41-45.91,25.14-44.45,54.65-86.35,88.17-124.97,13.48-16.03,28.06-31.33,42.99-45.91,49.55-49.19,105.3-91.45,166.51-125.34,30.61-17.49,62.31-32.79,95.46-45.54,89.27-35.71,186.55-55.02,288.21-55.02h1762.4c101.66,0,198.94,19.31,288.21,55.02,33.16,12.75,64.86,28.06,95.46,45.54,61.21,34.25,117.32,76.52,166.51,125.34,14.94,14.94,29.51,30.24,42.63,45.91,33.89,38.62,63.4,80.52,88.54,124.97,8.74,14.94,16.76,30.24,24.05,45.91,19.68,40.08,35.71,81.62,47.37,124.97,4.74,15.3,8.74,30.61,11.66,45.91,9.47,40.81,15.3,82.71,17.49,125.34,1.09,14.94,1.46,29.88,1.46,44.82Z"/>
    <rect class="cls-1" x="355.9" y="1194.64" width="3395.49" height="125.5"/>
    <g>
      <path class="cls-1" d="m3722.44,1109.75v.73H392.94v-.73c0-14.94.36-29.88,1.46-44.82h3326.58c1.09,14.94,1.46,29.88,1.46,44.82Z"/>
      <path class="cls-1" d="m3703.49,939.59H411.88c2.91-15.3,6.92-30.61,11.66-45.91h3268.29c4.74,15.3,8.74,30.61,11.66,45.91Z"/>
      <path class="cls-1" d="m3644.46,768.71H470.91c7.29-15.67,15.67-30.97,24.41-45.91h3125.09c8.74,14.94,16.76,30.24,24.05,45.91Z"/>
      <path class="cls-1" d="m3531.88,597.83H583.5c13.48-16.03,28.06-31.33,42.99-45.91h2862.76c14.94,14.94,29.51,30.24,42.63,45.91Z"/>
      <path class="cls-1" d="m3322.74,426.58H793c30.61-17.49,62.31-32.79,95.46-45.54h2338.81c33.16,12.75,64.86,28.06,95.46,45.54Z"/>
    </g>
    <path class="cls-1" d="m2402.02,807.84h641.25c4.79,0,8.67,3.89,8.67,8.67v1318.76h-658.59V816.51c0-4.79,3.89-8.67,8.67-8.67Z"/>
    <path class="cls-5" d="m2722.65,843.62h0c-162.9,0-294.96,132.06-294.96,294.96v996.68h589.92v-996.68c0-162.9-132.06-294.96-294.96-294.96Z"/>
    <rect class="cls-5" x="3962.03" y="2135.27" width="119.06" height="135.04"/>
    <rect class="cls-4" x="3983.63" y="2270.31" width="75.85" height="213.34"/>
    <circle class="cls-2" cx="2722.65" cy="1129.88" r="190.26"/>
    <path class="cls-3" d="m1222.55,155.33h639.14c1.29,0,2.34,1.05,2.34,2.34v168.34h-643.82v-168.34c0-1.29,1.05-2.34,2.34-2.34Z"/>
    <path class="cls-1" d="m1778.69,155.33h-473.14c-47.13,0-85.34,38.21-85.34,85.34h643.82c0-47.13-38.21-85.34-85.34-85.34Z"/>
    <rect class="cls-1" x="2214.4" y="2063.64" width="1014.25" height="71.63"/>
    <rect class="cls-6" x="889.57" y="1320.14" width="54.64" height="688.36"/>
    <rect class="cls-6" x="1410.63" y="1320.14" width="54.63" height="688.36"/>
    <rect class="cls-6" x="1931.68" y="1320.14" width="54.64" height="688.36"/>
    <rect class="cls-6" x="3322.74" y="1320.14" width="54.63" height="688.36"/>
    <g>
      <rect class="cls-4" x="738.35" y="668.6" width="672.28" height="497.21"/>
      <rect class="cls-2" x="796.09" y="717.52" width="556.8" height="399.36"/>
    </g>
    <g>
      <rect class="cls-4" x="1542.12" y="668.6" width="672.28" height="497.21"/>
      <rect class="cls-2" x="1599.86" y="717.52" width="556.8" height="399.36"/>
    </g>
    <g>
      <rect class="cls-4" x="3128.19" y="843.62" width="443.72" height="328.17"/>
      <rect class="cls-2" x="3166.3" y="875.91" width="367.5" height="263.59"/>
    </g>
  </g>
  <path class="cls-4" d="m2562.3,1345.66c0,25.85-20.96,46.82-46.82,46.82s-46.82-20.96-46.82-46.82,20.96-46.82,46.82-46.82,46.82,20.96,46.82,46.82Z"/>
  <rect class="cls-6" x="1505.25" y="1491.99" width="373.01" height="172.57"/>
  <rect class="cls-6" x="1542.12" y="1259.37" width="346.63" height="172.57"/>
  <rect class="cls-6" x="448.2" y="1491.99" width="375.34" height="172.57"/>
  <rect class="cls-6" x="448.2" y="1259.37" width="375.34" height="172.57"/>
</svg>